<mxfile host="app.diagrams.net" agent="Mozilla/5.0 (Macintosh; Intel Mac OS X 10_13_6) AppleWebKit/537.36 (KHTML, like Gecko) Chrome/116.0.5845.2325 YaBrowser/23.9.0.2325 Yowser/2.5 Safari/537.36" version="26.0.11">
  <diagram id="kgpKYQtTHZ0yAKxKKP6v" name="Page-1">
    <mxGraphModel dx="2440" dy="1085" grid="1" gridSize="10" guides="1" tooltips="1" connect="1" arrows="1" fold="1" page="1" pageScale="1" pageWidth="850" pageHeight="1100" math="0" shadow="0">
      <root>
        <mxCell id="0" />
        <mxCell id="1" parent="0" />
        <mxCell id="50NvU-xwB35Kj3Ts2R44-38" value="" style="rounded=1;whiteSpace=wrap;html=1;dashed=1;" vertex="1" parent="1">
          <mxGeometry x="200" y="1050" width="520" height="280" as="geometry" />
        </mxCell>
        <mxCell id="50NvU-xwB35Kj3Ts2R44-118" value="" style="rounded=1;whiteSpace=wrap;html=1;strokeColor=#FF320A;" vertex="1" parent="1">
          <mxGeometry x="526" y="1160" width="164" height="140" as="geometry" />
        </mxCell>
        <mxCell id="50NvU-xwB35Kj3Ts2R44-117" value="" style="rounded=1;whiteSpace=wrap;html=1;strokeColor=#FF320A;" vertex="1" parent="1">
          <mxGeometry x="405" y="1160" width="115" height="110" as="geometry" />
        </mxCell>
        <mxCell id="50NvU-xwB35Kj3Ts2R44-116" value="" style="rounded=1;whiteSpace=wrap;html=1;strokeColor=#FF320A;" vertex="1" parent="1">
          <mxGeometry x="229" y="1160" width="161" height="140" as="geometry" />
        </mxCell>
        <mxCell id="50NvU-xwB35Kj3Ts2R44-114" value="" style="rounded=1;whiteSpace=wrap;html=1;strokeColor=#FF320A;" vertex="1" parent="1">
          <mxGeometry x="930" y="560" width="111" height="120" as="geometry" />
        </mxCell>
        <mxCell id="50NvU-xwB35Kj3Ts2R44-24" value="" style="rounded=1;whiteSpace=wrap;html=1;dashed=1;" vertex="1" parent="1">
          <mxGeometry x="110" y="450" width="800" height="470" as="geometry" />
        </mxCell>
        <mxCell id="50NvU-xwB35Kj3Ts2R44-113" value="" style="rounded=1;whiteSpace=wrap;html=1;strokeColor=#FF320A;" vertex="1" parent="1">
          <mxGeometry x="759" y="560" width="111" height="228" as="geometry" />
        </mxCell>
        <mxCell id="50NvU-xwB35Kj3Ts2R44-112" value="" style="rounded=1;whiteSpace=wrap;html=1;strokeColor=#FF320A;" vertex="1" parent="1">
          <mxGeometry x="609" y="561" width="111" height="228" as="geometry" />
        </mxCell>
        <mxCell id="50NvU-xwB35Kj3Ts2R44-111" value="" style="rounded=1;whiteSpace=wrap;html=1;strokeColor=#FF320A;" vertex="1" parent="1">
          <mxGeometry x="464" y="560" width="111" height="230" as="geometry" />
        </mxCell>
        <mxCell id="50NvU-xwB35Kj3Ts2R44-110" value="" style="rounded=1;whiteSpace=wrap;html=1;strokeColor=#FF320A;" vertex="1" parent="1">
          <mxGeometry x="319" y="560" width="111" height="230" as="geometry" />
        </mxCell>
        <mxCell id="50NvU-xwB35Kj3Ts2R44-109" value="" style="rounded=1;whiteSpace=wrap;html=1;strokeColor=#FF320A;" vertex="1" parent="1">
          <mxGeometry x="130" y="561" width="160" height="349" as="geometry" />
        </mxCell>
        <mxCell id="50NvU-xwB35Kj3Ts2R44-42" value="Traefik&lt;div&gt;API GateWay&lt;/div&gt;" style="rounded=1;whiteSpace=wrap;html=1;direction=north;strokeColor=#FF320A;" vertex="1" parent="1">
          <mxGeometry x="10" y="450" width="50" height="125" as="geometry" />
        </mxCell>
        <mxCell id="50NvU-xwB35Kj3Ts2R44-22" value="" style="rounded=1;whiteSpace=wrap;html=1;dashed=1;" vertex="1" parent="1">
          <mxGeometry x="110" y="190" width="640" height="180" as="geometry" />
        </mxCell>
        <mxCell id="s-tv678PbhezY-uhHTnp-1" value="&lt;span style=&quot;color: rgb(0, 0, 0); font-family: Helvetica; font-size: 12px; font-style: normal; font-variant-ligatures: normal; font-variant-caps: normal; font-weight: 400; letter-spacing: normal; orphans: 2; text-align: center; text-indent: 0px; text-transform: none; widows: 2; word-spacing: 0px; -webkit-text-stroke-width: 0px; white-space: normal; background-color: rgb(251, 251, 251); text-decoration-thickness: initial; text-decoration-style: initial; text-decoration-color: initial; display: inline !important; float: none;&quot;&gt;Сервис авторизации&lt;/span&gt;" style="rounded=1;whiteSpace=wrap;html=1;strokeColor=light-dark(#FF320A,#FFFFFF);" parent="1" vertex="1">
          <mxGeometry x="130" y="470" width="160" height="90" as="geometry" />
        </mxCell>
        <mxCell id="s-tv678PbhezY-uhHTnp-4" value="&lt;span style=&quot;color: rgb(0, 0, 0); font-family: Helvetica; font-size: 12px; font-style: normal; font-variant-ligatures: normal; font-variant-caps: normal; font-weight: 700; letter-spacing: normal; orphans: 2; text-align: center; text-indent: 0px; text-transform: none; widows: 2; word-spacing: 0px; -webkit-text-stroke-width: 0px; white-space: nowrap; background-color: rgb(251, 251, 251); text-decoration-thickness: initial; text-decoration-style: initial; text-decoration-color: initial; display: inline !important; float: none;&quot;&gt;Задание 2: Возможная декомпозиция монолита&lt;/span&gt;" style="text;whiteSpace=wrap;html=1;" parent="1" vertex="1">
          <mxGeometry x="290" y="60" width="310" height="40" as="geometry" />
        </mxCell>
        <mxCell id="s-tv678PbhezY-uhHTnp-5" value="&lt;span style=&quot;color: rgb(0, 0, 0); font-family: Helvetica; font-size: 12px; font-style: normal; font-variant-ligatures: normal; font-variant-caps: normal; font-weight: 700; letter-spacing: normal; orphans: 2; text-align: center; text-indent: 0px; text-transform: none; widows: 2; word-spacing: 0px; -webkit-text-stroke-width: 0px; white-space: nowrap; background-color: rgb(251, 251, 251); text-decoration-thickness: initial; text-decoration-style: initial; text-decoration-color: initial; display: inline !important; float: none;&quot;&gt;Портал электронной площадки&lt;/span&gt;" style="text;whiteSpace=wrap;html=1;rotation=270;" parent="1" vertex="1">
          <mxGeometry x="-220" y="385" width="220" height="40" as="geometry" />
        </mxCell>
        <mxCell id="s-tv678PbhezY-uhHTnp-7" value="&lt;span style=&quot;color: rgb(0, 0, 0); font-family: Helvetica; font-size: 12px; font-style: normal; font-variant-ligatures: normal; font-variant-caps: normal; font-weight: 400; letter-spacing: normal; orphans: 2; text-align: center; text-indent: 0px; text-transform: none; widows: 2; word-spacing: 0px; -webkit-text-stroke-width: 0px; white-space: normal; background-color: rgb(251, 251, 251); text-decoration-thickness: initial; text-decoration-style: initial; text-decoration-color: initial; display: inline !important; float: none;&quot;&gt;Сервис заказов&lt;/span&gt;" style="rounded=1;whiteSpace=wrap;html=1;strokeColor=light-dark(#FF320A,#FFFFFF);" parent="1" vertex="1">
          <mxGeometry x="320" y="470" width="110" height="90" as="geometry" />
        </mxCell>
        <mxCell id="s-tv678PbhezY-uhHTnp-8" value="&lt;span style=&quot;color: rgb(0, 0, 0); font-family: Helvetica; font-size: 12px; font-style: normal; font-variant-ligatures: normal; font-variant-caps: normal; font-weight: 400; letter-spacing: normal; orphans: 2; text-align: center; text-indent: 0px; text-transform: none; widows: 2; word-spacing: 0px; -webkit-text-stroke-width: 0px; white-space: normal; background-color: rgb(251, 251, 251); text-decoration-thickness: initial; text-decoration-style: initial; text-decoration-color: initial; display: inline !important; float: none;&quot;&gt;Сервис услуг&lt;/span&gt;" style="rounded=1;whiteSpace=wrap;html=1;strokeColor=light-dark(#FF320A,#FFFFFF);" parent="1" vertex="1">
          <mxGeometry x="465" y="470" width="110" height="90" as="geometry" />
        </mxCell>
        <mxCell id="s-tv678PbhezY-uhHTnp-11" value="React/HTML/CSS" style="text;html=1;align=center;verticalAlign=middle;whiteSpace=wrap;rounded=0;" parent="1" vertex="1">
          <mxGeometry x="180" y="195" width="60" height="40" as="geometry" />
        </mxCell>
        <mxCell id="s-tv678PbhezY-uhHTnp-13" value="React/HTML/CSS" style="text;html=1;align=center;verticalAlign=middle;whiteSpace=wrap;rounded=0;" parent="1" vertex="1">
          <mxGeometry x="345" y="195" width="60" height="40" as="geometry" />
        </mxCell>
        <mxCell id="s-tv678PbhezY-uhHTnp-14" value="React/HTML/CSS" style="text;html=1;align=center;verticalAlign=middle;whiteSpace=wrap;rounded=0;" parent="1" vertex="1">
          <mxGeometry x="490" y="195" width="60" height="40" as="geometry" />
        </mxCell>
        <mxCell id="s-tv678PbhezY-uhHTnp-15" value="React/HTML/CSS" style="text;html=1;align=center;verticalAlign=middle;whiteSpace=wrap;rounded=0;" parent="1" vertex="1">
          <mxGeometry x="610" y="195" width="110" height="40" as="geometry" />
        </mxCell>
        <mxCell id="s-tv678PbhezY-uhHTnp-16" value="&lt;span style=&quot;color: rgb(0, 0, 0); font-family: Helvetica; font-size: 12px; font-style: normal; font-variant-ligatures: normal; font-variant-caps: normal; font-weight: 400; letter-spacing: normal; orphans: 2; text-align: center; text-indent: 0px; text-transform: none; widows: 2; word-spacing: 0px; -webkit-text-stroke-width: 0px; white-space: normal; background-color: rgb(251, 251, 251); text-decoration-thickness: initial; text-decoration-style: initial; text-decoration-color: initial; display: inline !important; float: none;&quot;&gt;Регистрация и редактирование профиля пользователя&lt;/span&gt;" style="rounded=1;whiteSpace=wrap;html=1;strokeColor=light-dark(#FF320A,#FFFFFF);" parent="1" vertex="1">
          <mxGeometry x="130" y="230" width="160" height="120" as="geometry" />
        </mxCell>
        <mxCell id="s-tv678PbhezY-uhHTnp-21" value="&lt;span style=&quot;color: rgb(0, 0, 0); font-family: Helvetica; font-size: 12px; font-style: normal; font-variant-ligatures: normal; font-variant-caps: normal; font-weight: 400; letter-spacing: normal; orphans: 2; text-align: center; text-indent: 0px; text-transform: none; widows: 2; word-spacing: 0px; -webkit-text-stroke-width: 0px; white-space: normal; background-color: rgb(251, 251, 251); text-decoration-thickness: initial; text-decoration-style: initial; text-decoration-color: initial; display: inline !important; float: none;&quot;&gt;&amp;nbsp;Размещение заказов пользователем&lt;/span&gt;" style="rounded=1;whiteSpace=wrap;html=1;strokeColor=light-dark(#FF320A,#FFFFFF);" parent="1" vertex="1">
          <mxGeometry x="320" y="230" width="110" height="120" as="geometry" />
        </mxCell>
        <mxCell id="s-tv678PbhezY-uhHTnp-22" value="&lt;span style=&quot;color: rgb(0, 0, 0); font-family: Helvetica; font-size: 12px; font-style: normal; font-variant-ligatures: normal; font-variant-caps: normal; font-weight: 400; letter-spacing: normal; orphans: 2; text-align: center; text-indent: 0px; text-transform: none; widows: 2; word-spacing: 0px; -webkit-text-stroke-width: 0px; white-space: normal; background-color: rgb(251, 251, 251); text-decoration-thickness: initial; text-decoration-style: initial; text-decoration-color: initial; display: inline !important; float: none;&quot;&gt;&amp;nbsp;Размещение услуг пользователем&lt;/span&gt;" style="rounded=1;whiteSpace=wrap;html=1;strokeColor=light-dark(#FF320A,#FFFFFF);" parent="1" vertex="1">
          <mxGeometry x="465" y="230" width="110" height="120" as="geometry" />
        </mxCell>
        <mxCell id="s-tv678PbhezY-uhHTnp-23" value="&lt;span style=&quot;color: rgb(0, 0, 0); font-family: Helvetica; font-size: 12px; font-style: normal; font-variant-ligatures: normal; font-variant-caps: normal; font-weight: 400; letter-spacing: normal; orphans: 2; text-align: center; text-indent: 0px; text-transform: none; widows: 2; word-spacing: 0px; -webkit-text-stroke-width: 0px; white-space: normal; background-color: rgb(251, 251, 251); text-decoration-thickness: initial; text-decoration-style: initial; text-decoration-color: initial; display: inline !important; float: none;&quot;&gt;Аукцион&lt;/span&gt;" style="rounded=1;whiteSpace=wrap;html=1;strokeColor=light-dark(#FF320A,#FFFFFF);" parent="1" vertex="1">
          <mxGeometry x="610" y="230" width="110" height="120" as="geometry" />
        </mxCell>
        <mxCell id="s-tv678PbhezY-uhHTnp-25" value="&lt;span style=&quot;color: rgb(0, 0, 0); font-family: Helvetica; font-size: 12px; font-style: normal; font-variant-ligatures: normal; font-variant-caps: normal; font-weight: 400; letter-spacing: normal; orphans: 2; text-align: center; text-indent: 0px; text-transform: none; widows: 2; word-spacing: 0px; -webkit-text-stroke-width: 0px; white-space: normal; background-color: rgb(251, 251, 251); text-decoration-thickness: initial; text-decoration-style: initial; text-decoration-color: initial; display: inline !important; float: none;&quot;&gt;Сервис поиска&lt;/span&gt;" style="rounded=1;whiteSpace=wrap;html=1;strokeColor=light-dark(#FF320A,#FFFFFF);" parent="1" vertex="1">
          <mxGeometry x="610" y="470" width="110" height="90" as="geometry" />
        </mxCell>
        <mxCell id="s-tv678PbhezY-uhHTnp-26" value="&lt;span style=&quot;color: rgb(0, 0, 0); font-family: Helvetica; font-size: 12px; font-style: normal; font-variant-ligatures: normal; font-variant-caps: normal; font-weight: 400; letter-spacing: normal; orphans: 2; text-align: center; text-indent: 0px; text-transform: none; widows: 2; word-spacing: 0px; -webkit-text-stroke-width: 0px; white-space: normal; background-color: rgb(251, 251, 251); text-decoration-thickness: initial; text-decoration-style: initial; text-decoration-color: initial; display: inline !important; float: none;&quot;&gt;Сервис оплаты&lt;/span&gt;" style="rounded=1;whiteSpace=wrap;html=1;strokeColor=light-dark(#FF320A,#FFFFFF);" parent="1" vertex="1">
          <mxGeometry x="930" y="470" width="110" height="90" as="geometry" />
        </mxCell>
        <mxCell id="s-tv678PbhezY-uhHTnp-27" value="&lt;span style=&quot;color: rgb(0, 0, 0); font-family: Helvetica; font-size: 12px; font-style: normal; font-variant-ligatures: normal; font-variant-caps: normal; font-weight: 400; letter-spacing: normal; orphans: 2; text-align: center; text-indent: 0px; text-transform: none; widows: 2; word-spacing: 0px; -webkit-text-stroke-width: 0px; white-space: normal; background-color: rgb(251, 251, 251); text-decoration-thickness: initial; text-decoration-style: initial; text-decoration-color: initial; display: inline !important; float: none;&quot;&gt;Аналитический сервис&lt;/span&gt;" style="rounded=1;whiteSpace=wrap;html=1;strokeColor=light-dark(#FF320A,#FFFFFF);" parent="1" vertex="1">
          <mxGeometry x="760" y="470" width="110" height="90" as="geometry" />
        </mxCell>
        <mxCell id="s-tv678PbhezY-uhHTnp-28" value="" style="rounded=1;whiteSpace=wrap;html=1;strokeColor=light-dark(#FF2007,#FFFFFF);" parent="1" vertex="1">
          <mxGeometry x="130" y="390" width="910" height="30" as="geometry" />
        </mxCell>
        <mxCell id="s-tv678PbhezY-uhHTnp-30" value="Шина данных (Kafka | RabbitMQ | SAP PI)&amp;nbsp;" style="text;html=1;align=center;verticalAlign=middle;whiteSpace=wrap;rounded=0;" parent="1" vertex="1">
          <mxGeometry x="450" y="390" width="320" height="30" as="geometry" />
        </mxCell>
        <mxCell id="50NvU-xwB35Kj3Ts2R44-1" value="TurboPay" style="rounded=0;whiteSpace=wrap;html=1;" vertex="1" parent="1">
          <mxGeometry x="890" y="130" width="120" height="60" as="geometry" />
        </mxCell>
        <mxCell id="50NvU-xwB35Kj3Ts2R44-2" value="FastMoney" style="rounded=0;whiteSpace=wrap;html=1;" vertex="1" parent="1">
          <mxGeometry x="950" y="175" width="120" height="60" as="geometry" />
        </mxCell>
        <mxCell id="50NvU-xwB35Kj3Ts2R44-3" value="Яндекс.Pay" style="rounded=0;whiteSpace=wrap;html=1;" vertex="1" parent="1">
          <mxGeometry x="1010" y="220" width="120" height="60" as="geometry" />
        </mxCell>
        <mxCell id="50NvU-xwB35Kj3Ts2R44-4" value="" style="endArrow=classic;startArrow=classic;html=1;rounded=0;entryX=0.5;entryY=1;entryDx=0;entryDy=0;exitX=1;exitY=0.5;exitDx=0;exitDy=0;" edge="1" parent="1" source="s-tv678PbhezY-uhHTnp-26" target="50NvU-xwB35Kj3Ts2R44-3">
          <mxGeometry width="50" height="50" relative="1" as="geometry">
            <mxPoint x="990" y="730" as="sourcePoint" />
            <mxPoint x="730" y="330" as="targetPoint" />
            <Array as="points">
              <mxPoint x="1070" y="515" />
              <mxPoint x="1070" y="440" />
              <mxPoint x="1070" y="350" />
            </Array>
          </mxGeometry>
        </mxCell>
        <mxCell id="50NvU-xwB35Kj3Ts2R44-5" value="" style="endArrow=classic;startArrow=classic;html=1;rounded=0;exitX=0.086;exitY=-0.1;exitDx=0;exitDy=0;exitPerimeter=0;" edge="1" parent="1" source="s-tv678PbhezY-uhHTnp-28">
          <mxGeometry width="50" height="50" relative="1" as="geometry">
            <mxPoint x="160" y="400" as="sourcePoint" />
            <mxPoint x="210" y="350" as="targetPoint" />
          </mxGeometry>
        </mxCell>
        <mxCell id="50NvU-xwB35Kj3Ts2R44-6" value="" style="endArrow=classic;startArrow=classic;html=1;rounded=0;exitX=0.077;exitY=0.067;exitDx=0;exitDy=0;exitPerimeter=0;" edge="1" parent="1">
          <mxGeometry width="50" height="50" relative="1" as="geometry">
            <mxPoint x="374.58000000000004" y="392" as="sourcePoint" />
            <mxPoint x="374.58000000000004" y="350" as="targetPoint" />
          </mxGeometry>
        </mxCell>
        <mxCell id="50NvU-xwB35Kj3Ts2R44-7" value="" style="endArrow=classic;startArrow=classic;html=1;rounded=0;exitX=0.077;exitY=0.067;exitDx=0;exitDy=0;exitPerimeter=0;" edge="1" parent="1">
          <mxGeometry width="50" height="50" relative="1" as="geometry">
            <mxPoint x="519.5799999999999" y="392" as="sourcePoint" />
            <mxPoint x="519.5799999999999" y="350" as="targetPoint" />
          </mxGeometry>
        </mxCell>
        <mxCell id="50NvU-xwB35Kj3Ts2R44-8" value="" style="endArrow=classic;startArrow=classic;html=1;rounded=0;exitX=0.077;exitY=0.067;exitDx=0;exitDy=0;exitPerimeter=0;" edge="1" parent="1">
          <mxGeometry width="50" height="50" relative="1" as="geometry">
            <mxPoint x="664.5799999999999" y="392" as="sourcePoint" />
            <mxPoint x="664.5799999999999" y="350" as="targetPoint" />
          </mxGeometry>
        </mxCell>
        <mxCell id="50NvU-xwB35Kj3Ts2R44-9" value="" style="endArrow=classic;startArrow=classic;html=1;rounded=0;entryX=0.09;entryY=1.033;entryDx=0;entryDy=0;entryPerimeter=0;" edge="1" parent="1" target="s-tv678PbhezY-uhHTnp-28">
          <mxGeometry width="50" height="50" relative="1" as="geometry">
            <mxPoint x="210.32" y="470" as="sourcePoint" />
            <mxPoint x="210.00000000000006" y="423.65999999999997" as="targetPoint" />
          </mxGeometry>
        </mxCell>
        <mxCell id="50NvU-xwB35Kj3Ts2R44-10" value="" style="endArrow=classic;startArrow=classic;html=1;rounded=0;entryX=0.267;entryY=1.1;entryDx=0;entryDy=0;entryPerimeter=0;" edge="1" parent="1" target="s-tv678PbhezY-uhHTnp-28">
          <mxGeometry width="50" height="50" relative="1" as="geometry">
            <mxPoint x="374.9" y="470" as="sourcePoint" />
            <mxPoint x="374.58000000000004" y="423.65999999999997" as="targetPoint" />
          </mxGeometry>
        </mxCell>
        <mxCell id="50NvU-xwB35Kj3Ts2R44-11" value="" style="endArrow=classic;startArrow=classic;html=1;rounded=0;entryX=0.067;entryY=1.122;entryDx=0;entryDy=0;entryPerimeter=0;exitX=0.5;exitY=0;exitDx=0;exitDy=0;" edge="1" parent="1" source="s-tv678PbhezY-uhHTnp-8">
          <mxGeometry width="50" height="50" relative="1" as="geometry">
            <mxPoint x="519.9" y="466.34" as="sourcePoint" />
            <mxPoint x="519.58" y="419.99999999999994" as="targetPoint" />
          </mxGeometry>
        </mxCell>
        <mxCell id="50NvU-xwB35Kj3Ts2R44-13" value="" style="endArrow=classic;startArrow=classic;html=1;rounded=0;entryX=0.067;entryY=1.122;entryDx=0;entryDy=0;entryPerimeter=0;exitX=0.5;exitY=0;exitDx=0;exitDy=0;" edge="1" parent="1">
          <mxGeometry width="50" height="50" relative="1" as="geometry">
            <mxPoint x="664.92" y="470" as="sourcePoint" />
            <mxPoint x="664.5" y="419.99999999999994" as="targetPoint" />
          </mxGeometry>
        </mxCell>
        <mxCell id="50NvU-xwB35Kj3Ts2R44-14" value="" style="endArrow=classic;startArrow=classic;html=1;rounded=0;entryX=0.067;entryY=1.122;entryDx=0;entryDy=0;entryPerimeter=0;exitX=0.5;exitY=0;exitDx=0;exitDy=0;" edge="1" parent="1">
          <mxGeometry width="50" height="50" relative="1" as="geometry">
            <mxPoint x="814.92" y="475" as="sourcePoint" />
            <mxPoint x="814.5" y="424.99999999999994" as="targetPoint" />
          </mxGeometry>
        </mxCell>
        <mxCell id="50NvU-xwB35Kj3Ts2R44-15" value="" style="endArrow=classic;startArrow=classic;html=1;rounded=0;entryX=0.067;entryY=1.122;entryDx=0;entryDy=0;entryPerimeter=0;exitX=0.5;exitY=0;exitDx=0;exitDy=0;" edge="1" parent="1">
          <mxGeometry width="50" height="50" relative="1" as="geometry">
            <mxPoint x="985" y="470" as="sourcePoint" />
            <mxPoint x="984.5799999999999" y="419.99999999999994" as="targetPoint" />
          </mxGeometry>
        </mxCell>
        <mxCell id="50NvU-xwB35Kj3Ts2R44-16" value="Клиент" style="shape=umlActor;verticalLabelPosition=bottom;verticalAlign=top;html=1;outlineConnect=0;" vertex="1" parent="1">
          <mxGeometry x="-50" y="250" width="30" height="60" as="geometry" />
        </mxCell>
        <mxCell id="50NvU-xwB35Kj3Ts2R44-18" value="&lt;span style=&quot;color: rgb(0, 0, 0); font-family: Helvetica; font-size: 12px; font-style: normal; font-variant-ligatures: normal; font-variant-caps: normal; font-weight: 400; letter-spacing: normal; orphans: 2; text-align: center; text-indent: 0px; text-transform: none; widows: 2; word-spacing: 0px; -webkit-text-stroke-width: 0px; white-space: normal; background-color: rgb(251, 251, 251); text-decoration-thickness: initial; text-decoration-style: initial; text-decoration-color: initial; display: inline !important; float: none;&quot;&gt;Сервис авторизации&lt;/span&gt;" style="rounded=1;whiteSpace=wrap;html=1;strokeColor=light-dark(#FF320A,#FFFFFF);" vertex="1" parent="1">
          <mxGeometry x="230" y="1070" width="160" height="90" as="geometry" />
        </mxCell>
        <mxCell id="50NvU-xwB35Kj3Ts2R44-23" value="" style="endArrow=classic;html=1;rounded=0;" edge="1" parent="1">
          <mxGeometry width="50" height="50" relative="1" as="geometry">
            <mxPoint x="-20" y="280" as="sourcePoint" />
            <mxPoint x="10" y="281" as="targetPoint" />
          </mxGeometry>
        </mxCell>
        <mxCell id="50NvU-xwB35Kj3Ts2R44-25" value="&lt;span style=&quot;color: rgb(0, 0, 0); font-family: Helvetica; font-size: 12px; font-style: normal; font-variant-ligatures: normal; font-variant-caps: normal; font-weight: 400; letter-spacing: normal; orphans: 2; text-align: center; text-indent: 0px; text-transform: none; widows: 2; word-spacing: 0px; -webkit-text-stroke-width: 0px; white-space: normal; background-color: rgb(251, 251, 251); text-decoration-thickness: initial; text-decoration-style: initial; text-decoration-color: initial; display: inline !important; float: none;&quot;&gt;Сервис заказов&lt;/span&gt;" style="rounded=1;whiteSpace=wrap;html=1;strokeColor=light-dark(#FF320A,#FFFFFF);" vertex="1" parent="1">
          <mxGeometry x="405" y="1070" width="110" height="90" as="geometry" />
        </mxCell>
        <mxCell id="50NvU-xwB35Kj3Ts2R44-26" value="&lt;span style=&quot;color: rgb(0, 0, 0); font-family: Helvetica; font-size: 12px; font-style: normal; font-variant-ligatures: normal; font-variant-caps: normal; font-weight: 400; letter-spacing: normal; orphans: 2; text-align: center; text-indent: 0px; text-transform: none; widows: 2; word-spacing: 0px; -webkit-text-stroke-width: 0px; white-space: normal; background-color: rgb(251, 251, 251); text-decoration-thickness: initial; text-decoration-style: initial; text-decoration-color: initial; display: inline !important; float: none;&quot;&gt;Сервис аукциона&lt;/span&gt;" style="rounded=1;whiteSpace=wrap;html=1;strokeColor=light-dark(#FF320A,#FFFFFF);" vertex="1" parent="1">
          <mxGeometry x="530" y="1070" width="140" height="90" as="geometry" />
        </mxCell>
        <mxCell id="50NvU-xwB35Kj3Ts2R44-27" value="" style="endArrow=classic;startArrow=classic;html=1;rounded=0;entryX=0.191;entryY=1.1;entryDx=0;entryDy=0;entryPerimeter=0;exitX=0.463;exitY=0.011;exitDx=0;exitDy=0;exitPerimeter=0;" edge="1" parent="1" source="50NvU-xwB35Kj3Ts2R44-18" target="s-tv678PbhezY-uhHTnp-28">
          <mxGeometry width="50" height="50" relative="1" as="geometry">
            <mxPoint x="300" y="620" as="sourcePoint" />
            <mxPoint x="350" y="570" as="targetPoint" />
          </mxGeometry>
        </mxCell>
        <mxCell id="50NvU-xwB35Kj3Ts2R44-28" value="" style="endArrow=classic;startArrow=classic;html=1;rounded=0;entryX=0.169;entryY=1.033;entryDx=0;entryDy=0;entryPerimeter=0;exitX=0.391;exitY=0.022;exitDx=0;exitDy=0;exitPerimeter=0;" edge="1" parent="1" source="50NvU-xwB35Kj3Ts2R44-25">
          <mxGeometry width="50" height="50" relative="1" as="geometry">
            <mxPoint x="448" y="620" as="sourcePoint" />
            <mxPoint x="450" y="420" as="targetPoint" />
          </mxGeometry>
        </mxCell>
        <mxCell id="50NvU-xwB35Kj3Ts2R44-29" value="" style="endArrow=classic;startArrow=classic;html=1;rounded=0;entryX=0.169;entryY=1.033;entryDx=0;entryDy=0;entryPerimeter=0;" edge="1" parent="1">
          <mxGeometry width="50" height="50" relative="1" as="geometry">
            <mxPoint x="592" y="1070" as="sourcePoint" />
            <mxPoint x="592" y="420" as="targetPoint" />
          </mxGeometry>
        </mxCell>
        <mxCell id="50NvU-xwB35Kj3Ts2R44-31" value="Специалист поддержки" style="shape=umlActor;verticalLabelPosition=bottom;verticalAlign=top;html=1;outlineConnect=0;" vertex="1" parent="1">
          <mxGeometry x="-50" y="470" width="30" height="60" as="geometry" />
        </mxCell>
        <mxCell id="50NvU-xwB35Kj3Ts2R44-33" value="Администратор" style="shape=umlActor;verticalLabelPosition=bottom;verticalAlign=top;html=1;outlineConnect=0;" vertex="1" parent="1">
          <mxGeometry x="-50" y="1067.5" width="30" height="60" as="geometry" />
        </mxCell>
        <mxCell id="50NvU-xwB35Kj3Ts2R44-39" value="Traefik&lt;div&gt;API GateWay&lt;/div&gt;" style="rounded=1;whiteSpace=wrap;html=1;direction=north;strokeColor=#FF320A;" vertex="1" parent="1">
          <mxGeometry x="10" y="230" width="50" height="125" as="geometry" />
        </mxCell>
        <mxCell id="50NvU-xwB35Kj3Ts2R44-40" value="" style="endArrow=classic;html=1;rounded=0;entryX=0;entryY=0.5;entryDx=0;entryDy=0;" edge="1" parent="1" target="50NvU-xwB35Kj3Ts2R44-22">
          <mxGeometry width="50" height="50" relative="1" as="geometry">
            <mxPoint x="60" y="280" as="sourcePoint" />
            <mxPoint x="110" y="230" as="targetPoint" />
          </mxGeometry>
        </mxCell>
        <mxCell id="50NvU-xwB35Kj3Ts2R44-41" value="" style="endArrow=classic;html=1;rounded=0;" edge="1" parent="1">
          <mxGeometry width="50" height="50" relative="1" as="geometry">
            <mxPoint x="-20" y="500" as="sourcePoint" />
            <mxPoint x="10" y="501" as="targetPoint" />
          </mxGeometry>
        </mxCell>
        <mxCell id="50NvU-xwB35Kj3Ts2R44-43" value="" style="endArrow=classic;html=1;rounded=0;entryX=0;entryY=0.5;entryDx=0;entryDy=0;" edge="1" parent="1">
          <mxGeometry width="50" height="50" relative="1" as="geometry">
            <mxPoint x="60" y="500" as="sourcePoint" />
            <mxPoint x="110" y="500" as="targetPoint" />
          </mxGeometry>
        </mxCell>
        <mxCell id="50NvU-xwB35Kj3Ts2R44-45" value="" style="endArrow=classic;html=1;rounded=0;" edge="1" parent="1">
          <mxGeometry width="50" height="50" relative="1" as="geometry">
            <mxPoint x="-20" y="1107.5" as="sourcePoint" />
            <mxPoint x="10" y="1108.5" as="targetPoint" />
          </mxGeometry>
        </mxCell>
        <mxCell id="50NvU-xwB35Kj3Ts2R44-46" value="Traefik&lt;div&gt;API GateWay&lt;/div&gt;" style="rounded=1;whiteSpace=wrap;html=1;direction=north;strokeColor=#FF320A;" vertex="1" parent="1">
          <mxGeometry x="10" y="1057.5" width="50" height="125" as="geometry" />
        </mxCell>
        <mxCell id="50NvU-xwB35Kj3Ts2R44-47" value="" style="endArrow=classic;html=1;rounded=0;entryX=0;entryY=0.357;entryDx=0;entryDy=0;entryPerimeter=0;" edge="1" parent="1">
          <mxGeometry width="50" height="50" relative="1" as="geometry">
            <mxPoint x="60" y="1107.5" as="sourcePoint" />
            <mxPoint x="200" y="1107.48" as="targetPoint" />
          </mxGeometry>
        </mxCell>
        <mxCell id="50NvU-xwB35Kj3Ts2R44-49" value="&lt;p style=&quot;margin: 0px 0px 0px 13px; text-indent: -13px; font-variant-numeric: normal; font-variant-east-asian: normal; font-variant-alternates: normal; font-kerning: auto; font-optical-sizing: auto; font-feature-settings: normal; font-variation-settings: normal; font-stretch: normal; line-height: normal; color: rgb(14, 14, 14); text-align: start;&quot; class=&quot;p1&quot;&gt;&lt;font style=&quot;font-size: 10px;&quot; face=&quot;Helvetica&quot;&gt;Заявка на аукцион.ID&lt;/font&gt;&lt;/p&gt;" style="rounded=1;whiteSpace=wrap;html=1;fillColor=#b1ddf0;strokeColor=#10739e;" vertex="1" parent="1">
          <mxGeometry x="530" y="1210" width="110" height="21" as="geometry" />
        </mxCell>
        <mxCell id="50NvU-xwB35Kj3Ts2R44-52" value="&lt;p style=&quot;margin: 0px 0px 0px 13px; text-indent: -13px; font-variant-numeric: normal; font-variant-east-asian: normal; font-variant-alternates: normal; font-kerning: auto; font-optical-sizing: auto; font-feature-settings: normal; font-variation-settings: normal; font-variant-position: normal; font-stretch: normal; line-height: normal; color: rgb(14, 14, 14); text-align: start;&quot; class=&quot;p1&quot;&gt;&lt;font style=&quot;font-size: 10px;&quot; face=&quot;Helvetica&quot;&gt;Заявка на регистрацию&lt;/font&gt;&lt;/p&gt;" style="rounded=1;whiteSpace=wrap;html=1;fillColor=#b1ddf0;strokeColor=#10739e;" vertex="1" parent="1">
          <mxGeometry x="460" y="610" width="120" height="21" as="geometry" />
        </mxCell>
        <mxCell id="50NvU-xwB35Kj3Ts2R44-53" value="&lt;p style=&quot;margin: 0px 0px 0px 13px; text-indent: -13px; font-variant-numeric: normal; font-variant-east-asian: normal; font-variant-alternates: normal; font-kerning: auto; font-optical-sizing: auto; font-feature-settings: normal; font-variation-settings: normal; font-stretch: normal; line-height: normal; color: rgb(14, 14, 14); text-align: start;&quot; class=&quot;p1&quot;&gt;&lt;font style=&quot;font-size: 10px;&quot; face=&quot;Helvetica&quot;&gt;Пользователь.Имя&lt;/font&gt;&lt;/p&gt;" style="rounded=1;whiteSpace=wrap;html=1;fillColor=#b1ddf0;strokeColor=#10739e;" vertex="1" parent="1">
          <mxGeometry x="130.5" y="610" width="99.5" height="21" as="geometry" />
        </mxCell>
        <mxCell id="50NvU-xwB35Kj3Ts2R44-54" value="React/HTML/CSS" style="text;html=1;align=center;verticalAlign=middle;whiteSpace=wrap;rounded=0;" vertex="1" parent="1">
          <mxGeometry x="160" y="450" width="60" height="40" as="geometry" />
        </mxCell>
        <mxCell id="50NvU-xwB35Kj3Ts2R44-55" value="&lt;p style=&quot;margin: 0px 0px 0px 13px; text-indent: -13px; font-variant-numeric: normal; font-variant-east-asian: normal; font-variant-alternates: normal; font-kerning: auto; font-optical-sizing: auto; font-feature-settings: normal; font-variation-settings: normal; font-stretch: normal; line-height: normal; color: rgb(14, 14, 14); text-align: start;&quot; class=&quot;p1&quot;&gt;&lt;font style=&quot;font-size: 10px;&quot;&gt;Пользователь.Дата регистрации&lt;/font&gt;&lt;/p&gt;" style="rounded=1;whiteSpace=wrap;html=1;fillColor=#b1ddf0;strokeColor=#10739e;" vertex="1" parent="1">
          <mxGeometry x="130.5" y="640" width="159.5" height="21" as="geometry" />
        </mxCell>
        <mxCell id="50NvU-xwB35Kj3Ts2R44-56" value="&lt;p style=&quot;margin: 0px 0px 0px 13px; text-indent: -13px; font-variant-numeric: normal; font-variant-east-asian: normal; font-variant-alternates: normal; font-kerning: auto; font-optical-sizing: auto; font-feature-settings: normal; font-variation-settings: normal; font-variant-position: normal; font-stretch: normal; line-height: normal; color: rgb(14, 14, 14); text-align: start;&quot; class=&quot;p1&quot;&gt;&lt;font style=&quot;font-size: 10px;&quot; face=&quot;Helvetica&quot;&gt;JWT&lt;/font&gt;&lt;/p&gt;" style="rounded=1;whiteSpace=wrap;html=1;fillColor=#b1ddf0;strokeColor=#10739e;" vertex="1" parent="1">
          <mxGeometry x="130.5" y="580" width="34.75" height="21" as="geometry" />
        </mxCell>
        <mxCell id="50NvU-xwB35Kj3Ts2R44-57" value="&lt;p style=&quot;margin: 0px 0px 0px 13px; text-indent: -13px; font-variant-numeric: normal; font-variant-east-asian: normal; font-variant-alternates: normal; font-kerning: auto; font-optical-sizing: auto; font-feature-settings: normal; font-variation-settings: normal; font-stretch: normal; line-height: normal; color: rgb(14, 14, 14); text-align: start;&quot; class=&quot;p1&quot;&gt;&lt;font style=&quot;font-size: 10px;&quot; face=&quot;Helvetica&quot;&gt;Пользователь.Активен&lt;/font&gt;&lt;/p&gt;" style="rounded=1;whiteSpace=wrap;html=1;fillColor=#b1ddf0;strokeColor=#10739e;" vertex="1" parent="1">
          <mxGeometry x="130.5" y="670" width="123.5" height="21" as="geometry" />
        </mxCell>
        <mxCell id="50NvU-xwB35Kj3Ts2R44-58" value="&lt;p style=&quot;margin: 0px 0px 0px 13px; text-indent: -13px; font-variant-numeric: normal; font-variant-east-asian: normal; font-variant-alternates: normal; font-kerning: auto; font-optical-sizing: auto; font-feature-settings: normal; font-variation-settings: normal; font-stretch: normal; line-height: normal; color: rgb(14, 14, 14); text-align: start;&quot; class=&quot;p1&quot;&gt;&lt;font style=&quot;font-size: 10px;&quot; face=&quot;Helvetica&quot;&gt;Пользователь.Роль&lt;/font&gt;&lt;/p&gt;" style="rounded=1;whiteSpace=wrap;html=1;fillColor=#b1ddf0;strokeColor=#10739e;" vertex="1" parent="1">
          <mxGeometry x="130" y="700" width="100" height="21" as="geometry" />
        </mxCell>
        <mxCell id="50NvU-xwB35Kj3Ts2R44-59" value="&lt;p style=&quot;margin: 0px 0px 0px 13px; text-indent: -13px; font-variant-numeric: normal; font-variant-east-asian: normal; font-variant-alternates: normal; font-kerning: auto; font-optical-sizing: auto; font-feature-settings: normal; font-variation-settings: normal; font-stretch: normal; line-height: normal; color: rgb(14, 14, 14); text-align: start;&quot; class=&quot;p1&quot;&gt;&lt;font style=&quot;font-size: 10px;&quot; face=&quot;Helvetica&quot;&gt;Пользователь.ID&lt;/font&gt;&lt;/p&gt;" style="rounded=1;whiteSpace=wrap;html=1;fillColor=#b1ddf0;strokeColor=#10739e;" vertex="1" parent="1">
          <mxGeometry x="130" y="729" width="90" height="21" as="geometry" />
        </mxCell>
        <mxCell id="50NvU-xwB35Kj3Ts2R44-60" value="&lt;p style=&quot;margin: 0px 0px 0px 13px; text-indent: -13px; font-variant-numeric: normal; font-variant-east-asian: normal; font-variant-alternates: normal; font-kerning: auto; font-optical-sizing: auto; font-feature-settings: normal; font-variation-settings: normal; font-stretch: normal; line-height: normal; color: rgb(14, 14, 14); text-align: start;&quot; class=&quot;p1&quot;&gt;&lt;font style=&quot;font-size: 10px;&quot; face=&quot;Helvetica&quot;&gt;Пользователь.Фамилия&lt;/font&gt;&lt;/p&gt;" style="rounded=1;whiteSpace=wrap;html=1;fillColor=#b1ddf0;strokeColor=#10739e;" vertex="1" parent="1">
          <mxGeometry x="130" y="756" width="120" height="21" as="geometry" />
        </mxCell>
        <mxCell id="50NvU-xwB35Kj3Ts2R44-61" value="&lt;p style=&quot;margin: 0px 0px 0px 13px; text-indent: -13px; font-variant-numeric: normal; font-variant-east-asian: normal; font-variant-alternates: normal; font-kerning: auto; font-optical-sizing: auto; font-feature-settings: normal; font-variation-settings: normal; font-stretch: normal; line-height: normal; color: rgb(14, 14, 14); text-align: start;&quot; class=&quot;p1&quot;&gt;&lt;font style=&quot;font-size: 10px;&quot; face=&quot;Helvetica&quot;&gt;Пользователь.Адрес&lt;/font&gt;&lt;/p&gt;" style="rounded=1;whiteSpace=wrap;html=1;fillColor=#b1ddf0;strokeColor=#10739e;" vertex="1" parent="1">
          <mxGeometry x="130" y="781.5" width="110" height="21" as="geometry" />
        </mxCell>
        <mxCell id="50NvU-xwB35Kj3Ts2R44-62" value="&lt;p style=&quot;margin: 0px 0px 0px 13px; text-indent: -13px; font-variant-numeric: normal; font-variant-east-asian: normal; font-variant-alternates: normal; font-kerning: auto; font-optical-sizing: auto; font-feature-settings: normal; font-variation-settings: normal; font-stretch: normal; line-height: normal; color: rgb(14, 14, 14); text-align: start;&quot; class=&quot;p1&quot;&gt;&lt;font style=&quot;font-size: 10px;&quot; face=&quot;Helvetica&quot;&gt;Пользователь.Статус&lt;/font&gt;&lt;/p&gt;" style="rounded=1;whiteSpace=wrap;html=1;fillColor=#b1ddf0;strokeColor=#10739e;" vertex="1" parent="1">
          <mxGeometry x="130" y="811.5" width="120" height="21" as="geometry" />
        </mxCell>
        <mxCell id="50NvU-xwB35Kj3Ts2R44-63" value="&lt;p style=&quot;margin: 0px 0px 0px 13px; text-indent: -13px; font-variant-numeric: normal; font-variant-east-asian: normal; font-variant-alternates: normal; font-kerning: auto; font-optical-sizing: auto; font-feature-settings: normal; font-variation-settings: normal; font-stretch: normal; line-height: normal; color: rgb(14, 14, 14); text-align: start;&quot; class=&quot;p1&quot;&gt;&lt;font style=&quot;font-size: 10px;&quot; face=&quot;Helvetica&quot;&gt;Пользователь.Электронная почта&lt;/font&gt;&lt;/p&gt;" style="rounded=1;whiteSpace=wrap;html=1;fillColor=#b1ddf0;strokeColor=#10739e;" vertex="1" parent="1">
          <mxGeometry x="130" y="871.5" width="170" height="21" as="geometry" />
        </mxCell>
        <mxCell id="50NvU-xwB35Kj3Ts2R44-64" value="&lt;p style=&quot;margin: 0px 0px 0px 13px; text-indent: -13px; font-variant-numeric: normal; font-variant-east-asian: normal; font-variant-alternates: normal; font-kerning: auto; font-optical-sizing: auto; font-feature-settings: normal; font-variation-settings: normal; font-stretch: normal; line-height: normal; color: rgb(14, 14, 14); text-align: start;&quot; class=&quot;p1&quot;&gt;&lt;font style=&quot;font-size: 10px;&quot; face=&quot;Helvetica&quot;&gt;Пользователь.Номер телефона&lt;/font&gt;&lt;/p&gt;" style="rounded=1;whiteSpace=wrap;html=1;fillColor=#b1ddf0;strokeColor=#10739e;" vertex="1" parent="1">
          <mxGeometry x="130" y="841.5" width="160" height="21" as="geometry" />
        </mxCell>
        <mxCell id="50NvU-xwB35Kj3Ts2R44-66" value="&lt;p style=&quot;margin: 0px 0px 0px 13px; text-indent: -13px; font-variant-numeric: normal; font-variant-east-asian: normal; font-variant-alternates: normal; font-kerning: auto; font-optical-sizing: auto; font-feature-settings: normal; font-variation-settings: normal; font-stretch: normal; line-height: normal; color: rgb(14, 14, 14); text-align: start;&quot; class=&quot;p1&quot;&gt;&lt;font style=&quot;font-size: 10px;&quot;&gt;Торговая площадка.ID&lt;/font&gt;&lt;/p&gt;" style="rounded=1;whiteSpace=wrap;html=1;fillColor=#b1ddf0;strokeColor=#10739e;" vertex="1" parent="1">
          <mxGeometry x="530" y="1237.5" width="118.5" height="21" as="geometry" />
        </mxCell>
        <mxCell id="50NvU-xwB35Kj3Ts2R44-67" value="&lt;p style=&quot;margin: 0px 0px 0px 13px; text-indent: -13px; font-variant-numeric: normal; font-variant-east-asian: normal; font-variant-alternates: normal; font-kerning: auto; font-optical-sizing: auto; font-feature-settings: normal; font-variation-settings: normal; font-stretch: normal; line-height: normal; color: rgb(14, 14, 14); text-align: start;&quot; class=&quot;p1&quot;&gt;&lt;font style=&quot;font-size: 10px;&quot; face=&quot;Times New Roman&quot;&gt;Торговая площадка.Наименование&lt;/font&gt;&lt;/p&gt;" style="rounded=1;whiteSpace=wrap;html=1;fillColor=#b1ddf0;strokeColor=#10739e;" vertex="1" parent="1">
          <mxGeometry x="530" y="1266.25" width="157" height="21" as="geometry" />
        </mxCell>
        <mxCell id="50NvU-xwB35Kj3Ts2R44-68" value="&lt;p style=&quot;margin: 0px 0px 0px 13px; text-indent: -13px; font-variant-numeric: normal; font-variant-east-asian: normal; font-variant-alternates: normal; font-kerning: auto; font-optical-sizing: auto; font-feature-settings: normal; font-variation-settings: normal; font-stretch: normal; line-height: normal; color: rgb(14, 14, 14); text-align: start;&quot; class=&quot;p1&quot;&gt;&lt;font style=&quot;font-size: 10px;&quot; face=&quot;Helvetica&quot;&gt;Услуга.ID&lt;/font&gt;&lt;/p&gt;" style="rounded=1;whiteSpace=wrap;html=1;fillColor=#b1ddf0;strokeColor=#10739e;" vertex="1" parent="1">
          <mxGeometry x="460" y="643.63" width="60" height="21" as="geometry" />
        </mxCell>
        <mxCell id="50NvU-xwB35Kj3Ts2R44-69" value="&lt;p style=&quot;margin: 0px 0px 0px 13px; text-indent: -13px; font-variant-numeric: normal; font-variant-east-asian: normal; font-variant-alternates: normal; font-kerning: auto; font-optical-sizing: auto; font-feature-settings: normal; font-variation-settings: normal; font-stretch: normal; line-height: normal; color: rgb(14, 14, 14); text-align: start;&quot; class=&quot;p1&quot;&gt;&lt;font style=&quot;font-size: 10px;&quot; face=&quot;Helvetica&quot;&gt;Услуга.Название&lt;/font&gt;&lt;/p&gt;" style="rounded=1;whiteSpace=wrap;html=1;fillColor=#b1ddf0;strokeColor=#10739e;" vertex="1" parent="1">
          <mxGeometry x="460" y="673.88" width="89" height="21" as="geometry" />
        </mxCell>
        <mxCell id="50NvU-xwB35Kj3Ts2R44-70" value="&lt;p style=&quot;margin: 0px 0px 0px 13px; text-indent: -13px; font-variant-numeric: normal; font-variant-east-asian: normal; font-variant-alternates: normal; font-kerning: auto; font-optical-sizing: auto; font-feature-settings: normal; font-variation-settings: normal; font-stretch: normal; line-height: normal; color: rgb(14, 14, 14); text-align: start;&quot; class=&quot;p1&quot;&gt;&lt;font style=&quot;font-size: 10px;&quot; face=&quot;Helvetica&quot;&gt;Услуга. Описание&lt;/font&gt;&lt;/p&gt;" style="rounded=1;whiteSpace=wrap;html=1;fillColor=#b1ddf0;strokeColor=#10739e;" vertex="1" parent="1">
          <mxGeometry x="460" y="705.38" width="91" height="21" as="geometry" />
        </mxCell>
        <mxCell id="50NvU-xwB35Kj3Ts2R44-71" value="&lt;p style=&quot;margin: 0px 0px 0px 13px; text-indent: -13px; font-variant-numeric: normal; font-variant-east-asian: normal; font-variant-alternates: normal; font-kerning: auto; font-optical-sizing: auto; font-feature-settings: normal; font-variation-settings: normal; font-variant-position: normal; font-stretch: normal; line-height: normal; color: rgb(14, 14, 14); text-align: start;&quot; class=&quot;p1&quot;&gt;&lt;span style=&quot;font-size: 10px;&quot;&gt;Заказ.ID&lt;/span&gt;&lt;/p&gt;" style="rounded=1;whiteSpace=wrap;html=1;fillColor=#b1ddf0;strokeColor=#10739e;" vertex="1" parent="1">
          <mxGeometry x="320" y="610" width="60" height="21" as="geometry" />
        </mxCell>
        <mxCell id="50NvU-xwB35Kj3Ts2R44-72" value="&lt;p style=&quot;margin: 0px 0px 0px 13px; text-indent: -13px; font-variant-numeric: normal; font-variant-east-asian: normal; font-variant-alternates: normal; font-kerning: auto; font-optical-sizing: auto; font-feature-settings: normal; font-variation-settings: normal; font-stretch: normal; line-height: normal; color: rgb(14, 14, 14); text-align: start;&quot; class=&quot;p1&quot;&gt;&lt;font style=&quot;font-size: 10px;&quot; face=&quot;Helvetica&quot;&gt;Пользователь.Имя&lt;/font&gt;&lt;/p&gt;" style="rounded=1;whiteSpace=wrap;html=1;fillColor=#b1ddf0;strokeColor=#10739e;" vertex="1" parent="1">
          <mxGeometry x="240.5" y="1210" width="99.5" height="21" as="geometry" />
        </mxCell>
        <mxCell id="50NvU-xwB35Kj3Ts2R44-73" value="&lt;p style=&quot;margin: 0px 0px 0px 13px; text-indent: -13px; font-variant-numeric: normal; font-variant-east-asian: normal; font-variant-alternates: normal; font-kerning: auto; font-optical-sizing: auto; font-feature-settings: normal; font-variation-settings: normal; font-variant-position: normal; font-stretch: normal; line-height: normal; color: rgb(14, 14, 14); text-align: start;&quot; class=&quot;p1&quot;&gt;&lt;font style=&quot;font-size: 10px;&quot; face=&quot;Helvetica&quot;&gt;JWT&lt;/font&gt;&lt;/p&gt;" style="rounded=1;whiteSpace=wrap;html=1;fillColor=#b1ddf0;strokeColor=#10739e;" vertex="1" parent="1">
          <mxGeometry x="240.5" y="1180" width="34.75" height="21" as="geometry" />
        </mxCell>
        <mxCell id="50NvU-xwB35Kj3Ts2R44-74" value="&lt;p style=&quot;margin: 0px 0px 0px 13px; text-indent: -13px; font-variant-numeric: normal; font-variant-east-asian: normal; font-variant-alternates: normal; font-kerning: auto; font-optical-sizing: auto; font-feature-settings: normal; font-variation-settings: normal; font-stretch: normal; line-height: normal; color: rgb(14, 14, 14); text-align: start;&quot; class=&quot;p1&quot;&gt;&lt;font style=&quot;font-size: 10px;&quot; face=&quot;Helvetica&quot;&gt;Пользователь.ID&lt;/font&gt;&lt;/p&gt;" style="rounded=1;whiteSpace=wrap;html=1;fillColor=#b1ddf0;strokeColor=#10739e;" vertex="1" parent="1">
          <mxGeometry x="240" y="1238.75" width="90" height="21" as="geometry" />
        </mxCell>
        <mxCell id="50NvU-xwB35Kj3Ts2R44-75" value="&lt;p style=&quot;margin: 0px 0px 0px 13px; text-indent: -13px; font-variant-numeric: normal; font-variant-east-asian: normal; font-variant-alternates: normal; font-kerning: auto; font-optical-sizing: auto; font-feature-settings: normal; font-variation-settings: normal; font-stretch: normal; line-height: normal; color: rgb(14, 14, 14); text-align: start;&quot; class=&quot;p1&quot;&gt;&lt;font style=&quot;font-size: 10px;&quot; face=&quot;Helvetica&quot;&gt;Пользователь.Фамилия&lt;/font&gt;&lt;/p&gt;" style="rounded=1;whiteSpace=wrap;html=1;fillColor=#b1ddf0;strokeColor=#10739e;" vertex="1" parent="1">
          <mxGeometry x="240" y="1270" width="120" height="21" as="geometry" />
        </mxCell>
        <mxCell id="50NvU-xwB35Kj3Ts2R44-76" value="&lt;p style=&quot;margin: 0px 0px 0px 13px; text-indent: -13px; font-variant-numeric: normal; font-variant-east-asian: normal; font-variant-alternates: normal; font-kerning: auto; font-optical-sizing: auto; font-feature-settings: normal; font-variation-settings: normal; font-variant-position: normal; font-stretch: normal; line-height: normal; color: rgb(14, 14, 14); text-align: start;&quot; class=&quot;p1&quot;&gt;&lt;span style=&quot;font-size: 10px;&quot;&gt;Заказ.Статус&lt;/span&gt;&lt;/p&gt;" style="rounded=1;whiteSpace=wrap;html=1;fillColor=#b1ddf0;strokeColor=#10739e;" vertex="1" parent="1">
          <mxGeometry x="320" y="640" width="70" height="20" as="geometry" />
        </mxCell>
        <mxCell id="50NvU-xwB35Kj3Ts2R44-77" value="&lt;p style=&quot;margin: 0px 0px 0px 13px; text-indent: -13px; font-variant-numeric: normal; font-variant-east-asian: normal; font-variant-alternates: normal; font-kerning: auto; font-optical-sizing: auto; font-feature-settings: normal; font-variation-settings: normal; font-variant-position: normal; font-stretch: normal; line-height: normal; color: rgb(14, 14, 14); text-align: start;&quot; class=&quot;p1&quot;&gt;&lt;span style=&quot;font-size: 10px;&quot;&gt;Заказ.Нотификация&lt;/span&gt;&lt;/p&gt;" style="rounded=1;whiteSpace=wrap;html=1;fillColor=#b1ddf0;strokeColor=#10739e;" vertex="1" parent="1">
          <mxGeometry x="320" y="670" width="110" height="20" as="geometry" />
        </mxCell>
        <mxCell id="50NvU-xwB35Kj3Ts2R44-78" value="&lt;p style=&quot;margin: 0px 0px 0px 13px; text-indent: -13px; font-variant-numeric: normal; font-variant-east-asian: normal; font-variant-alternates: normal; font-kerning: auto; font-optical-sizing: auto; font-feature-settings: normal; font-variation-settings: normal; font-variant-position: normal; font-stretch: normal; line-height: normal; color: rgb(14, 14, 14); text-align: start;&quot; class=&quot;p1&quot;&gt;&lt;span style=&quot;font-size: 10px;&quot;&gt;Заказ.ID&lt;/span&gt;&lt;/p&gt;" style="rounded=1;whiteSpace=wrap;html=1;fillColor=#b1ddf0;strokeColor=#10739e;" vertex="1" parent="1">
          <mxGeometry x="410" y="1210" width="60" height="21" as="geometry" />
        </mxCell>
        <mxCell id="50NvU-xwB35Kj3Ts2R44-79" value="&lt;p style=&quot;margin: 0px 0px 0px 13px; text-indent: -13px; font-variant-numeric: normal; font-variant-east-asian: normal; font-variant-alternates: normal; font-kerning: auto; font-optical-sizing: auto; font-feature-settings: normal; font-variation-settings: normal; font-variant-position: normal; font-stretch: normal; line-height: normal; color: rgb(14, 14, 14); text-align: start;&quot; class=&quot;p1&quot;&gt;&lt;span style=&quot;font-size: 10px;&quot;&gt;Заказ.Статус&lt;/span&gt;&lt;/p&gt;" style="rounded=1;whiteSpace=wrap;html=1;fillColor=#b1ddf0;strokeColor=#10739e;" vertex="1" parent="1">
          <mxGeometry x="410" y="1240" width="70" height="20" as="geometry" />
        </mxCell>
        <mxCell id="50NvU-xwB35Kj3Ts2R44-80" value="&lt;p style=&quot;margin: 0px 0px 0px 13px; text-indent: -13px; font-variant-numeric: normal; font-variant-east-asian: normal; font-variant-alternates: normal; font-kerning: auto; font-optical-sizing: auto; font-feature-settings: normal; font-variation-settings: normal; font-stretch: normal; line-height: normal; color: rgb(14, 14, 14); text-align: start;&quot; class=&quot;p1&quot;&gt;&lt;font style=&quot;font-size: 10px;&quot; face=&quot;Helvetica&quot;&gt;Товар.ID&lt;/font&gt;&lt;/p&gt;" style="rounded=1;whiteSpace=wrap;html=1;fillColor=#b1ddf0;strokeColor=#10739e;" vertex="1" parent="1">
          <mxGeometry x="320" y="700" width="78" height="20" as="geometry" />
        </mxCell>
        <mxCell id="50NvU-xwB35Kj3Ts2R44-81" value="&lt;p style=&quot;margin: 0px 0px 0px 13px; text-indent: -13px; font-variant-numeric: normal; font-variant-east-asian: normal; font-variant-alternates: normal; font-kerning: auto; font-optical-sizing: auto; font-feature-settings: normal; font-variation-settings: normal; font-stretch: normal; line-height: normal; color: rgb(14, 14, 14); text-align: start;&quot; class=&quot;p1&quot;&gt;&lt;font style=&quot;font-size: 10px;&quot; face=&quot;Helvetica&quot;&gt;Товар.Название&lt;/font&gt;&lt;/p&gt;" style="rounded=1;whiteSpace=wrap;html=1;fillColor=#b1ddf0;strokeColor=#10739e;" vertex="1" parent="1">
          <mxGeometry x="320" y="758" width="85" height="21" as="geometry" />
        </mxCell>
        <mxCell id="50NvU-xwB35Kj3Ts2R44-82" value="&lt;p style=&quot;margin: 0px 0px 0px 13px; text-indent: -13px; font-variant-numeric: normal; font-variant-east-asian: normal; font-variant-alternates: normal; font-kerning: auto; font-optical-sizing: auto; font-feature-settings: normal; font-variation-settings: normal; font-stretch: normal; line-height: normal; color: rgb(14, 14, 14); text-align: start;&quot; class=&quot;p1&quot;&gt;&lt;font style=&quot;font-size: 10px;&quot; face=&quot;Helvetica&quot;&gt;Товар.Описание&lt;/font&gt;&lt;/p&gt;" style="rounded=1;whiteSpace=wrap;html=1;fillColor=#b1ddf0;strokeColor=#10739e;" vertex="1" parent="1">
          <mxGeometry x="319" y="726" width="86" height="21" as="geometry" />
        </mxCell>
        <mxCell id="50NvU-xwB35Kj3Ts2R44-83" value="&lt;p style=&quot;margin: 0px 0px 0px 13px; text-indent: -13px; font-variant-numeric: normal; font-variant-east-asian: normal; font-variant-alternates: normal; font-kerning: auto; font-optical-sizing: auto; font-feature-settings: normal; font-variation-settings: normal; font-stretch: normal; line-height: normal; color: rgb(14, 14, 14); text-align: start;&quot; class=&quot;p1&quot;&gt;&lt;font style=&quot;font-size: 10px;&quot; face=&quot;Helvetica&quot;&gt;Товар.ID&lt;/font&gt;&lt;/p&gt;" style="rounded=1;whiteSpace=wrap;html=1;fillColor=#b1ddf0;strokeColor=#10739e;" vertex="1" parent="1">
          <mxGeometry x="611" y="610" width="78" height="20" as="geometry" />
        </mxCell>
        <mxCell id="50NvU-xwB35Kj3Ts2R44-84" value="&lt;p style=&quot;margin: 0px 0px 0px 13px; text-indent: -13px; font-variant-numeric: normal; font-variant-east-asian: normal; font-variant-alternates: normal; font-kerning: auto; font-optical-sizing: auto; font-feature-settings: normal; font-variation-settings: normal; font-stretch: normal; line-height: normal; color: rgb(14, 14, 14); text-align: start;&quot; class=&quot;p1&quot;&gt;&lt;font style=&quot;font-size: 10px;&quot; face=&quot;Helvetica&quot;&gt;Товар.Название&lt;/font&gt;&lt;/p&gt;" style="rounded=1;whiteSpace=wrap;html=1;fillColor=#b1ddf0;strokeColor=#10739e;" vertex="1" parent="1">
          <mxGeometry x="611" y="668" width="85" height="21" as="geometry" />
        </mxCell>
        <mxCell id="50NvU-xwB35Kj3Ts2R44-85" value="&lt;p style=&quot;margin: 0px 0px 0px 13px; text-indent: -13px; font-variant-numeric: normal; font-variant-east-asian: normal; font-variant-alternates: normal; font-kerning: auto; font-optical-sizing: auto; font-feature-settings: normal; font-variation-settings: normal; font-stretch: normal; line-height: normal; color: rgb(14, 14, 14); text-align: start;&quot; class=&quot;p1&quot;&gt;&lt;font style=&quot;font-size: 10px;&quot; face=&quot;Helvetica&quot;&gt;Товар.Описание&lt;/font&gt;&lt;/p&gt;" style="rounded=1;whiteSpace=wrap;html=1;fillColor=#b1ddf0;strokeColor=#10739e;" vertex="1" parent="1">
          <mxGeometry x="610" y="636" width="86" height="21" as="geometry" />
        </mxCell>
        <mxCell id="50NvU-xwB35Kj3Ts2R44-86" value="&lt;p style=&quot;margin: 0px 0px 0px 13px; text-indent: -13px; font-variant-numeric: normal; font-variant-east-asian: normal; font-variant-alternates: normal; font-kerning: auto; font-optical-sizing: auto; font-feature-settings: normal; font-variation-settings: normal; font-stretch: normal; line-height: normal; color: rgb(14, 14, 14);&quot; class=&quot;p1&quot;&gt;&lt;font style=&quot;font-size: 10px;&quot; face=&quot;Helvetica&quot;&gt;&amp;nbsp; &amp;nbsp; Схема может быть &quot;динамической&quot; в зависимости от потребностей аналитиков&lt;/font&gt;&lt;/p&gt;" style="rounded=1;whiteSpace=wrap;html=1;fillColor=#b1ddf0;strokeColor=#10739e;align=left;" vertex="1" parent="1">
          <mxGeometry x="760" y="610" width="110" height="100" as="geometry" />
        </mxCell>
        <mxCell id="50NvU-xwB35Kj3Ts2R44-89" value="Vue.js" style="text;html=1;align=center;verticalAlign=middle;whiteSpace=wrap;rounded=0;" vertex="1" parent="1">
          <mxGeometry x="611" y="460" width="60" height="20" as="geometry" />
        </mxCell>
        <mxCell id="50NvU-xwB35Kj3Ts2R44-90" value="Vue.js" style="text;html=1;align=center;verticalAlign=middle;whiteSpace=wrap;rounded=0;" vertex="1" parent="1">
          <mxGeometry x="760" y="460" width="60" height="20" as="geometry" />
        </mxCell>
        <mxCell id="50NvU-xwB35Kj3Ts2R44-91" value="React/HTML/CSS" style="text;html=1;align=center;verticalAlign=middle;whiteSpace=wrap;rounded=0;" vertex="1" parent="1">
          <mxGeometry x="950" y="450" width="60" height="40" as="geometry" />
        </mxCell>
        <mxCell id="50NvU-xwB35Kj3Ts2R44-92" value="&lt;p style=&quot;margin: 0px 0px 0px 13px; text-indent: -13px; font-variant-numeric: normal; font-variant-east-asian: normal; font-variant-alternates: normal; font-kerning: auto; font-optical-sizing: auto; font-feature-settings: normal; font-variation-settings: normal; font-variant-position: normal; font-stretch: normal; line-height: normal; text-align: start;&quot; class=&quot;p1&quot;&gt;&lt;span style=&quot;text-align: center; text-indent: 0px;&quot;&gt;&lt;font style=&quot;font-size: 10px;&quot; face=&quot;Helvetica&quot;&gt;[Транзакция.ID]&lt;/font&gt;&lt;/span&gt;&lt;br&gt;&lt;/p&gt;" style="rounded=1;whiteSpace=wrap;html=1;fillColor=#B8B8B8;strokeColor=#FFD966;" vertex="1" parent="1">
          <mxGeometry x="933" y="609" width="85" height="21" as="geometry" />
        </mxCell>
        <mxCell id="50NvU-xwB35Kj3Ts2R44-93" value="&lt;p style=&quot;margin: 0px 0px 0px 13px; text-indent: -13px; font-variant-numeric: normal; font-variant-east-asian: normal; font-variant-alternates: normal; font-kerning: auto; font-optical-sizing: auto; font-feature-settings: normal; font-variation-settings: normal; font-variant-position: normal; font-stretch: normal; line-height: normal; text-align: start;&quot; class=&quot;p1&quot;&gt;&lt;span style=&quot;text-align: center; text-indent: 0px;&quot;&gt;&lt;font style=&quot;font-size: 10px;&quot; face=&quot;Helvetica&quot;&gt;[Транзакция.Статус]&lt;/font&gt;&lt;/span&gt;&lt;br&gt;&lt;/p&gt;" style="rounded=1;whiteSpace=wrap;html=1;fillColor=#B8B8B8;strokeColor=#FFD966;" vertex="1" parent="1">
          <mxGeometry x="933" y="639" width="105" height="21" as="geometry" />
        </mxCell>
        <mxCell id="50NvU-xwB35Kj3Ts2R44-94" value="React/HTML/CSS" style="text;html=1;align=center;verticalAlign=middle;whiteSpace=wrap;rounded=0;" vertex="1" parent="1">
          <mxGeometry x="345" y="450" width="60" height="40" as="geometry" />
        </mxCell>
        <mxCell id="50NvU-xwB35Kj3Ts2R44-95" value="React/HTML/CSS" style="text;html=1;align=center;verticalAlign=middle;whiteSpace=wrap;rounded=0;" vertex="1" parent="1">
          <mxGeometry x="490" y="450" width="60" height="40" as="geometry" />
        </mxCell>
        <mxCell id="50NvU-xwB35Kj3Ts2R44-96" value="React/HTML/CSS" style="text;html=1;align=center;verticalAlign=middle;whiteSpace=wrap;rounded=0;" vertex="1" parent="1">
          <mxGeometry x="260.25" y="1050" width="60" height="40" as="geometry" />
        </mxCell>
        <mxCell id="50NvU-xwB35Kj3Ts2R44-97" value="React/HTML/CSS" style="text;html=1;align=center;verticalAlign=middle;whiteSpace=wrap;rounded=0;" vertex="1" parent="1">
          <mxGeometry x="430" y="1050" width="60" height="40" as="geometry" />
        </mxCell>
        <mxCell id="50NvU-xwB35Kj3Ts2R44-98" value="React/HTML/CSS" style="text;html=1;align=center;verticalAlign=middle;whiteSpace=wrap;rounded=0;" vertex="1" parent="1">
          <mxGeometry x="555" y="1050" width="60" height="40" as="geometry" />
        </mxCell>
        <mxCell id="50NvU-xwB35Kj3Ts2R44-99" value="MongoDB" style="text;html=1;align=center;verticalAlign=middle;whiteSpace=wrap;rounded=0;" vertex="1" parent="1">
          <mxGeometry x="200" y="576" width="60" height="30" as="geometry" />
        </mxCell>
        <mxCell id="50NvU-xwB35Kj3Ts2R44-100" value="ClickHouse DB" style="text;html=1;align=center;verticalAlign=middle;whiteSpace=wrap;rounded=0;" vertex="1" parent="1">
          <mxGeometry x="770" y="580" width="90" height="30" as="geometry" />
        </mxCell>
        <mxCell id="50NvU-xwB35Kj3Ts2R44-101" value="ElasticSearch DB" style="text;html=1;align=center;verticalAlign=middle;whiteSpace=wrap;rounded=0;" vertex="1" parent="1">
          <mxGeometry x="610" y="580" width="110" height="30" as="geometry" />
        </mxCell>
        <mxCell id="50NvU-xwB35Kj3Ts2R44-102" value="MongoDB" style="text;html=1;align=center;verticalAlign=middle;whiteSpace=wrap;rounded=0;" vertex="1" parent="1">
          <mxGeometry x="285" y="1175" width="60" height="30" as="geometry" />
        </mxCell>
        <mxCell id="50NvU-xwB35Kj3Ts2R44-105" value="MongoDB" style="text;html=1;align=center;verticalAlign=middle;whiteSpace=wrap;rounded=0;" vertex="1" parent="1">
          <mxGeometry x="400" y="1175" width="70" height="30" as="geometry" />
        </mxCell>
        <mxCell id="50NvU-xwB35Kj3Ts2R44-106" value="MongoDB" style="text;html=1;align=center;verticalAlign=middle;whiteSpace=wrap;rounded=0;" vertex="1" parent="1">
          <mxGeometry x="530" y="1175" width="60" height="30" as="geometry" />
        </mxCell>
        <mxCell id="50NvU-xwB35Kj3Ts2R44-107" value="MongoDB" style="text;html=1;align=center;verticalAlign=middle;whiteSpace=wrap;rounded=0;" vertex="1" parent="1">
          <mxGeometry x="332" y="576" width="60" height="30" as="geometry" />
        </mxCell>
        <mxCell id="50NvU-xwB35Kj3Ts2R44-108" value="MongoDB" style="text;html=1;align=center;verticalAlign=middle;whiteSpace=wrap;rounded=0;" vertex="1" parent="1">
          <mxGeometry x="470" y="579" width="60" height="30" as="geometry" />
        </mxCell>
        <mxCell id="50NvU-xwB35Kj3Ts2R44-115" value="MongoDB" style="text;html=1;align=center;verticalAlign=middle;whiteSpace=wrap;rounded=0;" vertex="1" parent="1">
          <mxGeometry x="933" y="580" width="60" height="30" as="geometry" />
        </mxCell>
      </root>
    </mxGraphModel>
  </diagram>
</mxfile>
